<svg clip-rule="evenodd" fill-rule="evenodd" height="16" stroke-linejoin="round"
  stroke-miterlimit="2" viewBox="0 0 24 24" xmlns="http://www.w3.org/2000/svg" fill="currentColor">
  <g id="Icon">
    <path
      d="m8.955 10.815s.474 1.141.473 1.141c.207.101.407.217.598.345l1.225-.16c.249-.033.497.061.662.25.533.611.941 1.318 1.204 2.085.081.237.038.499-.115.698 0 0-.751.982-.751.981.016.23.016.461 0 .689l.751.982c.153.199.196.461.115.698-.263.767-.671 1.474-1.204 2.085-.165.189-.413.283-.662.25 0 0-1.225-.16-1.225-.16-.191.128-.391.244-.597.345l-.474 1.141c-.096.232-.302.4-.548.448-.795.156-1.612.156-2.407 0-.246-.048-.452-.216-.548-.448 0 0-.474-1.141-.473-1.141-.207-.101-.407-.217-.598-.345l-1.225.16c-.249.033-.497-.061-.662-.25-.533-.611-.941-1.318-1.204-2.085-.081-.237-.038-.499.115-.698 0 0 .751-.982.751-.981-.016-.23-.016-.461 0-.689l-.751-.982c-.153-.199-.196-.461-.115-.698.263-.767.671-1.474 1.204-2.085.165-.189.413-.283.662-.25 0 0 1.225.16 1.225.16.191-.128.391-.244.597-.345l.474-1.141c.096-.232.302-.4.548-.448.795-.156 1.612-.156 2.407 0 .246.048.452.216.548.448zm-1.752 3.799c-1.04 0-1.885.845-1.885 1.886s.845 1.886 1.885 1.886c1.041 0 1.886-.845 1.886-1.886s-.845-1.886-1.886-1.886z" />
    <path
      d="m8.712 9.412c-.005-.23.001-.46.02-.689l-1.046-1.365c-.152-.2-.195-.462-.114-.699.336-.981.859-1.887 1.54-2.668.165-.189.414-.283.663-.251 0 0 1.705.223 1.705.224.289-.201.595-.377.913-.528l.659-1.588c.097-.232.302-.4.549-.448 1.017-.2 2.063-.2 3.08 0 .246.048.452.216.548.448 0 0 .66 1.588.659 1.588.319.151.624.327.914.527l1.705-.223c.249-.032.497.062.662.251.682.781 1.205 1.687 1.541 2.668.081.237.038.499-.115.699 0 0-1.045 1.365-1.045 1.364.029.351.029.704 0 1.055l1.045 1.365c.153.2.196.462.115.699-.336.981-.859 1.887-1.541 2.668-.165.189-.413.283-.662.251 0 0-1.705-.223-1.705-.224-.289.201-.595.377-.913.528l-.66 1.588c-.096.232-.302.4-.548.448-.976.192-1.979.2-2.957.024l-.461-.603c0-.014 0-.028 0-.042.222-.29.533-.696.533-.696.356-.465.456-1.077.267-1.631-.305-.889-.779-1.71-1.396-2.418-.385-.441-.965-.661-1.546-.585l-.87.114c-.012-.007-.024-.014-.036-.021-.14-.337-.336-.81-.336-.81-.21-.505-.643-.881-1.167-1.02zm6.429-2.648c-1.372 0-2.486 1.114-2.486 2.486s1.114 2.486 2.486 2.486 2.486-1.114 2.486-2.486-1.114-2.486-2.486-2.486z" />
  </g>
</svg>
