<svg clip-rule="evenodd" height="16" width="16" fill-rule="evenodd" image-rendering="optimizeQuality"
  shape-rendering="geometricPrecision" text-rendering="geometricPrecision" fill="currentColor"
  viewBox="0 0 43.3492 43.3492" xmlns="http://www.w3.org/2000/svg">
  <g id="Layer_x0020_1">
    <g id="_213176160">
      <path id="_213177264"
        d="m35.1147 26.3326v8.3029c0 3.5829-2.9234 6.5064-6.5063 6.5064h-22.1022c-3.5829 0-6.5063-2.9234-6.5063-6.5064v-22.1022c0-3.583 2.9234-6.5063 6.5063-6.5063h15.1429v4.6075h-15.1429c-1.0398 0-1.8988.8589-1.8988 1.8988v22.1022c0 1.0399.859 1.8989 1.8988 1.8989h22.1022c1.0399 0 1.8989-.8591 1.8989-1.8989v-8.3029z" />
      <path id="_213177432"
        d="m29.5322 2.2073 13.817 11.0456-13.817 11.0455v-6.6452c-6.8851.4861-12.6351 4.7144-14.1442 11.4496-1.498-9.2329 4.9256-18.6668 14.1442-20.2502v-6.6453z" />
    </g>
  </g>
</svg>
