<?xml version="1.0" standalone="no"?>
<!DOCTYPE svg PUBLIC "-//W3C//DTD SVG 20010904//EN"
 "http://www.w3.org/TR/2001/REC-SVG-20010904/DTD/svg10.dtd">
<svg version="1.0" xmlns="http://www.w3.org/2000/svg"
 width="26" height="26" viewBox="0 0 512.000000 512.000000"
 preserveAspectRatio="xMidYMid meet">

<g transform="translate(0.000000,512.000000) scale(0.100000,-0.100000)"
fill="#000000" stroke="none">
<path d="M1186 5105 c-84 -30 -145 -120 -146 -212 l0 -53 -202 0 c-112 0 -220
-5 -241 -11 -51 -14 -104 -63 -117 -107 -8 -26 -10 -458 -8 -1384 3 -1342 3
-1347 24 -1374 50 -68 53 -69 307 -74 l232 -5 6 -68 c4 -53 12 -77 35 -110 34
-48 81 -82 133 -97 21 -6 182 -10 385 -10 274 0 347 -3 344 -13 -3 -6 -119
-333 -259 -724 l-254 -713 -521 0 c-510 0 -521 0 -542 -20 -30 -28 -30 -82 0
-110 l22 -20 2176 0 2176 0 22 20 c30 28 30 82 0 110 -21 20 -32 20 -542 20
l-521 0 -254 713 c-140 391 -256 718 -259 725 -3 9 70 12 344 12 203 0 364 4
385 10 96 27 157 102 167 206 l7 69 232 5 c214 5 234 7 259 26 65 48 69 61 72
233 3 147 2 158 -18 184 -28 35 -80 37 -110 5 -18 -20 -20 -35 -20 -160 l0
-138 -1940 0 -1940 0 2 1323 3 1322 1935 0 1935 0 5 -1075 c3 -591 6 -1076 8
-1078 1 -2 16 -9 34 -16 40 -17 81 -5 97 30 8 18 11 315 11 1090 0 1164 3
1104 -59 1157 -49 41 -90 47 -308 47 l-203 0 0 53 c0 29 -9 70 -19 93 -23 49
-88 107 -140 122 -28 9 -287 12 -950 12 l-912 0 -24 -25 c-14 -13 -25 -36 -25
-50 0 -14 11 -37 25 -50 l24 -25 911 0 911 0 24 -25 c18 -18 25 -35 25 -65 l0
-40 -1370 0 -1370 0 0 40 c0 30 7 47 25 65 l24 25 291 0 291 0 24 25 c14 13
25 36 25 50 0 14 -11 37 -25 50 l-24 25 -298 0 c-227 -1 -307 -4 -337 -15z
m2744 -3260 c0 -35 -6 -52 -25 -70 l-24 -25 -1321 0 -1321 0 -24 25 c-19 18
-25 35 -25 70 l0 45 1370 0 1370 0 0 -45z m-1450 -970 l0 -725 -446 0 c-434 0
-446 1 -441 19 2 11 118 337 257 725 l253 706 188 0 189 0 0 -725z m790 19
c139 -388 255 -714 257 -725 5 -18 -7 -19 -441 -19 l-446 0 0 725 0 725 189 0
188 0 253 -706z"/>
<path d="M997 4511 c-49 -10 -94 -54 -108 -104 -6 -24 -9 -114 -7 -221 3 -168
5 -184 26 -217 41 -68 50 -69 424 -69 382 0 384 1 426 81 22 42 23 52 20 241
-3 215 -5 223 -72 272 -26 20 -41 21 -349 23 -177 1 -339 -2 -360 -6z m631
-303 l3 -158 -301 0 -300 0 0 153 c0 85 3 157 7 160 4 4 137 6 297 5 l291 -3
3 -157z"/>
<path d="M2222 4510 c-44 -10 -90 -55 -102 -99 -5 -20 -10 -115 -10 -211 0
-163 2 -179 23 -220 40 -79 43 -80 427 -80 384 0 386 0 428 81 22 42 23 52 20
241 -3 215 -5 223 -72 272 -26 20 -41 21 -354 23 -180 1 -342 -2 -360 -7z
m636 -302 l3 -158 -301 0 -300 0 0 153 c0 85 3 157 7 160 4 4 137 6 297 5
l291 -3 3 -157z"/>
<path d="M3452 4510 c-18 -4 -45 -18 -59 -31 -47 -44 -53 -74 -53 -272 0 -170
2 -186 23 -227 40 -79 44 -80 425 -80 374 0 383 1 424 69 22 34 23 45 23 243
0 227 -1 232 -69 282 -26 20 -41 21 -354 23 -180 1 -342 -2 -360 -7z m636
-302 l3 -158 -301 0 -300 0 0 153 c0 85 3 157 7 160 4 4 137 6 297 5 l291 -3
3 -157z"/>
<path d="M993 3795 c-11 -8 -24 -26 -27 -40 -7 -29 15 -79 39 -89 9 -3 158 -6
331 -6 l315 0 24 25 c14 13 25 36 25 50 0 14 -11 37 -25 50 l-24 25 -318 0
c-265 0 -322 -2 -340 -15z"/>
<path d="M2213 3784 c-20 -20 -24 -31 -19 -57 13 -67 13 -67 366 -67 296 0
319 1 341 19 32 26 32 86 0 112 -22 18 -45 19 -343 19 l-319 0 -26 -26z"/>
<path d="M3445 3785 c-14 -13 -25 -36 -25 -50 0 -14 11 -37 25 -50 l24 -25
315 0 c173 0 322 3 331 6 24 10 46 60 39 89 -13 54 -22 55 -367 55 l-318 0
-24 -25z"/>
<path d="M993 3555 c-11 -8 -24 -26 -27 -40 -7 -29 15 -79 39 -89 9 -3 158 -6
331 -6 l315 0 24 25 c14 13 25 36 25 50 0 14 -11 37 -25 50 l-24 25 -318 0
c-265 0 -322 -2 -340 -15z"/>
<path d="M2213 3544 c-20 -20 -24 -31 -19 -57 13 -67 13 -67 366 -67 353 0
353 0 366 67 5 26 1 37 -19 57 l-26 26 -321 0 -321 0 -26 -26z"/>
<path d="M3445 3545 c-14 -13 -25 -36 -25 -50 0 -14 11 -37 25 -50 l24 -25
315 0 c173 0 322 3 331 6 24 10 46 60 39 89 -13 54 -22 55 -367 55 l-318 0
-24 -25z"/>
<path d="M960 3281 c-69 -36 -75 -60 -75 -291 0 -228 3 -241 68 -280 27 -17
51 -20 149 -20 108 0 119 2 138 22 11 12 20 32 20 46 0 60 -42 82 -156 82
l-74 0 0 155 0 155 300 0 300 0 0 -155 0 -155 -74 0 c-41 0 -87 -5 -102 -10
-55 -21 -69 -68 -33 -114 20 -25 23 -26 138 -26 106 0 121 2 152 23 65 43 70
67 67 292 -3 193 -4 201 -27 234 -42 59 -55 61 -423 61 -306 0 -336 -2 -368
-19z"/>
<path d="M2190 3282 c-22 -12 -44 -35 -58 -63 -22 -42 -23 -52 -20 -239 3
-217 7 -232 71 -270 30 -19 53 -20 377 -20 324 0 347 1 377 20 64 38 68 53 71
270 3 187 2 197 -20 239 -42 81 -44 81 -428 81 -305 0 -338 -2 -370 -18z m670
-287 l0 -155 -300 0 -300 0 0 155 0 155 300 0 300 0 0 -155z"/>
<path d="M3424 3286 c-17 -8 -42 -29 -55 -47 -23 -33 -24 -41 -27 -234 -3
-225 2 -249 67 -292 34 -23 37 -23 380 -23 325 0 348 1 378 20 65 39 68 52 68
280 0 187 -2 208 -20 239 -41 70 -50 71 -425 71 -259 -1 -342 -4 -366 -14z
m666 -291 l0 -155 -300 0 -300 0 0 155 0 155 300 0 300 0 0 -155z"/>
<path d="M1014 2590 c-26 -10 -54 -48 -54 -71 0 -9 9 -28 21 -43 l20 -26 329
0 329 0 20 26 c12 15 21 33 21 40 0 29 -25 64 -53 74 -36 12 -602 13 -633 0z"/>
<path d="M2244 2590 c-26 -10 -54 -48 -54 -71 0 -9 9 -28 21 -43 l20 -26 329
0 329 0 20 26 c27 35 26 57 -3 91 l-24 28 -309 2 c-169 1 -318 -2 -329 -7z"/>
<path d="M3469 2589 c-25 -9 -49 -45 -49 -73 0 -7 9 -25 21 -40 l20 -26 329 0
329 0 20 26 c27 35 26 57 -3 91 l-24 28 -309 2 c-181 1 -319 -2 -334 -8z"/>
<path d="M1014 2350 c-26 -10 -54 -48 -54 -71 0 -9 9 -28 21 -43 l20 -26 329
0 329 0 20 26 c12 15 21 33 21 40 0 29 -25 64 -53 74 -36 12 -602 13 -633 0z"/>
<path d="M2244 2350 c-26 -10 -54 -48 -54 -71 0 -9 9 -28 21 -43 l20 -26 329
0 329 0 20 26 c27 35 26 57 -3 91 l-24 28 -309 2 c-169 1 -318 -2 -329 -7z"/>
<path d="M3469 2349 c-25 -9 -49 -45 -49 -73 0 -7 9 -25 21 -40 l20 -26 329 0
329 0 20 26 c27 35 26 57 -3 91 l-24 28 -309 2 c-181 1 -319 -2 -334 -8z"/>
</g>
</svg>
